<svg width="48" height="38" viewBox="0 0 48 38" fill="none" xmlns="http://www.w3.org/2000/svg">
<g clip-path="url(#clip0_114_132)">
<path d="M4.9375 28.9658L5.05859 8.37824H2.63672V34.5738C5.96484 33.7491 9.30469 33.2243 12.668 33.2018C15.7734 33.183 18.8789 33.5991 21.9922 34.6112C20.0586 33.108 17.9023 32.0022 15.6016 31.2824C12.7031 30.3753 9.57031 30.0754 6.35938 30.3378C5.63281 30.394 5 29.8767 4.9375 29.1832C4.92969 29.1082 4.92969 29.037 4.9375 28.9658ZM40.4766 7.30238C40.4688 7.2424 40.4609 7.17868 40.4609 7.1112C40.4609 7.04747 40.4648 6.98375 40.4766 6.92002V2.75153C37.4297 2.47413 34.2891 2.79651 31.5469 3.79365C28.9844 4.72706 26.7734 6.26026 25.3359 8.45696V32.2009C27.5703 30.7689 29.8555 29.5918 32.2031 28.7896C34.8789 27.8749 37.6289 27.4401 40.4766 27.6575V7.30238ZM43.1133 5.84791H46.6836C47.4102 5.84791 48 6.41395 48 7.1112V36.2232C48 36.9204 47.4102 37.4865 46.6836 37.4865C46.5352 37.4865 46.3906 37.464 46.2578 37.419C42.5859 36.4106 38.9375 35.7396 35.3242 35.7171C31.8008 35.6946 28.2812 36.2906 24.7461 37.7864C24.5273 37.925 24.2656 38 23.9961 37.9963C23.7305 38 23.4688 37.925 23.2461 37.7864C19.7148 36.2869 16.1914 35.6946 12.668 35.7171C9.05469 35.7396 5.41016 36.4106 1.73438 37.419C1.60156 37.464 1.45703 37.4865 1.30859 37.4865C0.589844 37.4902 0 36.9242 0 36.2269V7.1112C0 6.41395 0.589844 5.84791 1.31641 5.84791H5.07031L5.09375 1.62694C5.09766 1.01966 5.54297 0.517337 6.14062 0.39738C9.60547 -0.296119 13.8164 -0.123681 17.5078 1.23333C20.0586 2.17049 22.375 3.6662 24.0664 5.82542C25.7734 3.81239 28.0547 2.36542 30.6211 1.43201C34.1289 0.153718 38.1758 -0.15367 41.9844 0.382386C42.6406 0.472353 43.1094 1.01591 43.1094 1.63068V5.84791H43.1133ZM26.6133 34.4201C29.5234 33.5429 32.4297 33.183 35.3359 33.198C38.6992 33.2168 42.0391 33.7453 45.3672 34.57V8.37824H43.1133V29.0782C43.1133 29.7755 42.5234 30.3415 41.7969 30.3415C41.6914 30.3415 41.5898 30.3303 41.4922 30.3078C38.6094 29.873 35.8164 30.2328 33.0898 31.1662C30.8945 31.9197 28.7383 33.0443 26.6133 34.4201ZM22.7031 31.9572V8.41948C21.3242 6.08407 19.0938 4.52089 16.5742 3.59497C13.7188 2.54535 10.5117 2.30919 7.71484 2.69155L7.56641 27.7362C10.6172 27.6313 13.6016 28.0024 16.4102 28.8833C18.6445 29.5806 20.7617 30.6039 22.7031 31.9572Z" fill="white"/>
</g>
<defs>
<clipPath id="clip0_114_132">
<rect width="48" height="38" fill="none"/>
</clipPath>
</defs>
</svg>
