<svg width="38" height="38" viewBox="0 0 38 38" fill="none" xmlns="http://www.w3.org/2000/svg">
<g clip-path="url(#clip0_114_186)">
<path d="M37.9907 19.0031C37.9932 16.5082 37.5038 14.0373 36.5507 11.7316C35.5975 9.42597 34.1992 7.3308 32.4358 5.56592C30.6723 3.80104 28.5783 2.40105 26.2734 1.44601C23.9685 0.490969 21.498 -0.000395243 19.0031 1.23519e-05C16.5073 -0.00283478 14.0354 0.486546 11.729 1.44015C9.42255 2.39375 7.32681 3.79284 5.56172 5.55735C3.79664 7.32186 2.39686 9.41715 1.44251 11.7233C0.488158 14.0294 -0.00202839 16.5011 6.30839e-06 18.9969C-0.00121386 21.4905 0.489128 23.9598 1.44299 26.2637C2.39685 28.5676 3.79552 30.6608 5.55901 32.4237C7.3225 34.1866 9.41621 35.5846 11.7204 36.5377C14.0246 37.4909 16.4941 37.9804 18.9876 37.9784C21.4813 37.98 23.9508 37.4899 26.2549 36.5362C28.5589 35.5825 30.6524 34.1838 32.4154 32.4203C34.1784 30.6567 35.5763 28.5628 36.5293 26.2584C37.4823 23.9541 37.9715 21.4844 37.9691 18.9907L37.9907 19.0031ZM19 28.1413L10.4896 18.7H15.9261V12.1224H22.0739V18.7H27.5228L19 28.1413ZM33.9303 19.0062C33.9246 22.964 32.3503 26.7581 29.5523 29.5572C26.7543 32.3564 22.9609 33.9323 19.0031 33.9396C15.0435 33.9364 11.2468 32.3626 8.44609 29.5636C5.64534 26.7646 4.06921 22.9689 4.06348 19.0093C4.06104 17.0475 4.44535 15.1044 5.19442 13.2912C5.94349 11.478 7.04264 9.83022 8.42901 8.44214C9.81537 7.05405 11.4618 5.95285 13.274 5.20153C15.0863 4.45021 17.0289 4.06349 18.9907 4.06349C22.9505 4.06595 26.7473 5.6407 29.5464 8.44157C32.3456 11.2424 33.918 15.0402 33.918 19L33.9303 19.0062Z" fill="#00235B"/>
</g>
<defs>
<clipPath id="clip0_114_186">
<rect width="38" height="38" fill="white"/>
</clipPath>
</defs>
</svg>
