<svg width="35" height="36" viewBox="0 0 35 36" fill="none" xmlns="http://www.w3.org/2000/svg">
<g clip-path="url(#clip0_114_216)">
<path d="M28.4375 14.625C28.4375 17.8523 27.4189 20.8336 25.7031 23.2523L34.3574 32.1609C35.2119 33.0398 35.2119 34.4672 34.3574 35.3461C33.5029 36.225 32.1152 36.225 31.2607 35.3461L22.6064 26.4375C20.2549 28.2094 17.3564 29.25 14.2188 29.25C6.36426 29.25 0 22.7039 0 14.625C0 6.54609 6.36426 0 14.2188 0C22.0732 0 28.4375 6.54609 28.4375 14.625ZM14.2188 24.75C15.5114 24.75 16.7915 24.4881 17.9858 23.9793C19.1801 23.4704 20.2653 22.7246 21.1793 21.7845C22.0934 20.8443 22.8185 19.7281 23.3132 18.4997C23.8079 17.2712 24.0625 15.9546 24.0625 14.625C24.0625 13.2954 23.8079 11.9787 23.3132 10.7503C22.8185 9.52191 22.0934 8.40574 21.1793 7.46554C20.2653 6.52535 19.1801 5.77955 17.9858 5.27072C16.7915 4.76189 15.5114 4.5 14.2188 4.5C12.9261 4.5 11.646 4.76189 10.4517 5.27072C9.25741 5.77955 8.17224 6.52535 7.25817 7.46554C6.34409 8.40574 5.61901 9.52191 5.12431 10.7503C4.62962 11.9787 4.375 13.2954 4.375 14.625C4.375 15.9546 4.62962 17.2712 5.12431 18.4997C5.61901 19.7281 6.34409 20.8443 7.25817 21.7845C8.17224 22.7246 9.25741 23.4704 10.4517 23.9793C11.646 24.4881 12.9261 24.75 14.2188 24.75Z" fill="white"/>
</g>
<defs>
<clipPath id="clip0_114_216">
<rect width="35" height="36" fill="white"/>
</clipPath>
</defs>
</svg>
