
<svg width="31" height="34" viewBox="0 0 31 34" fill="none" xmlns="http://www.w3.org/2000/svg">
<path d="M29.8022 7.30167C24.5297 6.77917 19.2256 6.51 13.9372 6.51C10.8022 6.51 7.66725 6.66833 4.53225 6.985L1.30225 7.30167M10.0106 5.7025L10.3589 3.62833C10.6122 2.12417 10.8022 1 13.4781 1H17.6264C20.3022 1 20.5081 2.1875 20.7456 3.64417L21.0939 5.7025M26.3981 12.305L25.3689 28.2492C25.1947 30.735 25.0522 32.6667 20.6347 32.6667H10.4697C6.05225 32.6667 5.90975 30.735 5.73558 28.2492L4.70641 12.305M12.9081 23.9583H18.1806M11.5939 17.625H19.5106" stroke="#A90C0C" stroke-width="1.5" stroke-linecap="round" stroke-linejoin="round"/>
</svg>
