<svg width="22" height="22" viewBox="0 0 22 22" fill="none" xmlns="http://www.w3.org/2000/svg">
<path d="M20.1667 20.1667L18.3334 18.3333M10.5417 19.25C11.6853 19.25 12.8177 19.0248 13.8742 18.5871C14.9308 18.1495 15.8908 17.508 16.6994 16.6994C17.5081 15.8908 18.1495 14.9308 18.5872 13.8742C19.0248 12.8177 19.25 11.6853 19.25 10.5417C19.25 9.39808 19.0248 8.26569 18.5872 7.20914C18.1495 6.1526 17.5081 5.1926 16.6994 4.38396C15.8908 3.57531 14.9308 2.93386 13.8742 2.49623C12.8177 2.05859 11.6853 1.83334 10.5417 1.83334C8.23211 1.83334 6.01711 2.75083 4.38399 4.38396C2.75086 6.01708 1.83337 8.23208 1.83337 10.5417C1.83337 12.8513 2.75086 15.0663 4.38399 16.6994C6.01711 18.3325 8.23211 19.25 10.5417 19.25Z" stroke="black" stroke-width="1.5" stroke-linecap="round" stroke-linejoin="round"/>
</svg>
